# Blender v3.0.1 OBJ File: ''
# www.blender.org
mtllib cube.mtl
o Cube.002
v 1.000000 1.000000 -1.000000
v -1.000000 1.000000 -1.000000
v -1.000000 1.000000 1.000000
v 1.000000 1.000000 1.000000
v 1.000000 -1.000000 1.000000
v -1.000000 -1.000000 1.000000
v -1.000000 -1.000000 -1.000000
v 1.000000 -1.000000 -1.000000
vt 0.011997 0.003558
vt 0.995406 0.003558
vt 0.995406 0.986967
vt 0.011997 0.986967
vt 0.004315 0.018923
vt 0.987724 0.018923
vt 0.987724 1.002332
vt 0.004315 1.002332
vt 0.004315 0.003558
vt 0.987724 0.003558
vt 0.987724 0.986967
vt 0.004315 0.986967
vt 0.004315 0.011241
vt 0.987724 0.011241
vt 0.987724 0.994649
vt 0.004315 0.994649
vt 0.004315 0.011241
vt 0.987724 0.011241
vt 0.987724 0.994649
vt 0.004315 0.994649
vt 0.011997 0.003558
vt 0.995406 0.986967
vt 0.011997 0.986967
vn 0.0000 1.0000 0.0000
vn 0.0000 -0.0000 1.0000
vn -1.0000 -0.0000 0.0000
vn 0.0000 -1.0000 -0.0000
vn 1.0000 0.0000 0.0000
vn 0.0000 0.0000 -1.0000
usemtl Material.001
s 1
f 1/1/1 2/2/1 3/3/1 4/4/1
f 5/5/2 4/6/2 3/7/2 6/8/2
f 6/9/3 3/10/3 2/11/3 7/12/3
f 7/13/4 8/14/4 5/15/4 6/16/4
f 8/17/5 1/18/5 4/19/5 5/20/5
f 7/21/6 2/2/6 1/22/6 8/23/6
